<svg width="30" height="24" viewBox="0 0 30 24" fill="none" xmlns="http://www.w3.org/2000/svg">
<path d="M29.0683 21.3333C29.0683 22.0406 28.7621 22.7189 28.2169 23.219C27.6718 23.719 26.9324 24 26.1615 24H2.90683C2.13589 24 1.39653 23.719 0.851391 23.219C0.306255 22.7189 0 22.0406 0 21.3333V2.66667C0 1.95942 0.306255 1.28115 0.851391 0.781048C1.39653 0.280951 2.13589 0 2.90683 0H10.1739L13.0807 4H26.1615C26.9324 4 27.6718 4.28095 28.2169 4.78105C28.7621 5.28115 29.0683 5.95942 29.0683 6.66667V21.3333Z" fill="#DDAE7E"/>
<path d="M14.5344 10C15.0866 10.0002 15.5344 10.4478 15.5344 11V13H17.8879C18.4402 13 18.8879 13.4477 18.8879 14C18.8879 14.5523 18.4402 15 17.8879 15H15.5344V17C15.5344 17.5522 15.0866 17.9998 14.5344 18C13.9821 18 13.5344 17.5523 13.5344 17V15H11.1799C10.6277 14.9999 10.1799 14.5522 10.1799 14C10.1799 13.4478 10.6277 13.0001 11.1799 13H13.5344V11C13.5344 10.4477 13.9821 10 14.5344 10Z" fill="white"/>
</svg>
