<svg width="22" height="22" viewBox="0 0 22 22" fill="none" xmlns="http://www.w3.org/2000/svg">
<path d="M20.5529 15.1054C21.0469 14.8585 21.6477 15.0588 21.8947 15.5527C22.1417 16.0467 21.9415 16.6475 21.4475 16.8945L11.4475 21.8945C11.166 22.0351 10.8344 22.0352 10.5529 21.8945L0.552948 16.8945C0.0591938 16.6474 -0.141173 16.0466 0.105682 15.5527C0.352629 15.0588 0.953549 14.8586 1.44748 15.1054L11.0002 19.8818L20.5529 15.1054ZM20.5529 10.1054C21.0469 9.85846 21.6477 10.0588 21.8947 10.5527C22.1417 11.0467 21.9415 11.6475 21.4475 11.8945L11.4475 16.8945C11.166 17.0351 10.8344 17.0352 10.5529 16.8945L0.552948 11.8945C0.0591938 11.6474 -0.141174 11.0466 0.105682 10.5527C0.352629 10.0588 0.953549 9.85863 1.44748 10.1054L11.0002 14.8818L20.5529 10.1054ZM10.6604 0.0595287C10.9163 -0.0329621 11.2011 -0.0176833 11.4475 0.105427L21.4475 5.10543C21.7863 5.27482 22.0002 5.62119 22.0002 5.99996C22.0002 6.37873 21.7863 6.7251 21.4475 6.89449L11.4475 11.8945C11.166 12.0351 10.8344 12.0352 10.5529 11.8945L0.552948 6.89449C0.214311 6.72505 0.00021365 6.37864 0.00021365 5.99996C0.000216791 5.62128 0.214309 5.27486 0.552948 5.10543L10.5529 0.105427L10.6604 0.0595287ZM3.23654 5.99996L11.0002 9.88179L18.7639 5.99996L11.0002 2.11812L3.23654 5.99996Z" fill="#575757"/>
</svg>
