<svg width="23" height="23" viewBox="0 0 23 23" fill="none" xmlns="http://www.w3.org/2000/svg">
<path fill-rule="evenodd" clip-rule="evenodd" d="M11.3385 22.5038C5.0764 22.5038 0 17.4662 0 11.2519C0 5.03765 5.0764 0 11.3385 0C17.6005 0 22.6769 5.03765 22.6769 11.2519C22.6769 17.4662 17.6005 22.5038 11.3385 22.5038ZM18.9656 16.4939C20.0058 15.0063 20.6154 13.1997 20.6154 11.2519C20.6154 6.1675 16.462 2.04579 11.3385 2.04579C6.21495 2.04579 2.06153 6.1675 2.06153 11.2519C2.06153 13.1997 2.67109 15.0062 3.71123 16.4938C4.86891 14.9764 7.58606 14.3232 11.3152 14.3205C9.01823 14.3098 7.21537 12.7002 7.21537 9.20609C7.21537 6.91046 8.84305 5.11449 11.3384 5.11449C13.8269 5.11449 15.4615 7.08007 15.4615 9.41067C15.4615 12.7539 13.6373 14.31 11.3618 14.3205C15.0909 14.3233 17.808 14.9764 18.9656 16.4939ZM17.4866 18.146C17.185 17.0695 15.0177 16.3663 11.3384 16.3663C7.65918 16.3663 5.49186 17.0694 5.19018 18.146C6.82703 19.5846 8.97996 20.458 11.3385 20.458C13.6969 20.458 15.8498 19.5846 17.4866 18.146ZM9.2769 9.20609C9.2769 11.5273 10.1203 12.2748 11.3384 12.2748C12.5524 12.2748 13.4 11.5571 13.4 9.41067C13.4 8.13247 12.5915 7.16029 11.3384 7.16029C10.0332 7.16029 9.2769 7.9948 9.2769 9.20609Z" fill="#575757"/>
</svg>
